<svg width="96" height="96" viewBox="0 0 96 96" fill="none" xmlns="http://www.w3.org/2000/svg">
<path d="M26 52L29.1378 58.2757C30.1998 60.3996 30.7308 61.4615 31.4401 62.3818C32.0696 63.1984 32.8016 63.9304 33.6182 64.5599C34.5385 65.2692 35.6004 65.8002 37.7243 66.8622L44 70L37.7243 73.1378C35.6004 74.1998 34.5385 74.7308 33.6182 75.4401C32.8016 76.0696 32.0696 76.8016 31.4401 77.6182C30.7308 78.5385 30.1998 79.6004 29.1378 81.7243L26 88L22.8622 81.7243C21.8002 79.6004 21.2692 78.5385 20.5599 77.6182C19.9304 76.8016 19.1984 76.0696 18.3818 75.4401C17.4615 74.7308 16.3996 74.1998 14.2757 73.1378L8 70L14.2757 66.8622C16.3996 65.8002 17.4615 65.2692 18.3818 64.5599C19.1984 63.9304 19.9304 63.1984 20.5599 62.3818C21.2692 61.4615 21.8002 60.3996 22.8622 58.2757L26 52Z" stroke="#92BDFF" stroke-width="2" stroke-linecap="round" stroke-linejoin="round"/>
<path d="M60 8L64.7145 20.2577C65.8425 23.1906 66.4066 24.6571 67.2837 25.8906C68.061 26.9838 69.0162 27.939 70.1094 28.7163C71.3429 29.5934 72.8094 30.1575 75.7423 31.2855L88 36L75.7423 40.7145C72.8094 41.8425 71.3429 42.4066 70.1094 43.2837C69.0162 44.061 68.061 45.0162 67.2837 46.1094C66.4066 47.3429 65.8425 48.8094 64.7145 51.7423L60 64L55.2855 51.7423C54.1575 48.8094 53.5934 47.3429 52.7163 46.1094C51.939 45.0162 50.9838 44.061 49.8906 43.2837C48.6571 42.4066 47.1906 41.8425 44.2577 40.7145L32 36L44.2577 31.2855C47.1906 30.1575 48.6571 29.5934 49.8906 28.7163C50.9838 27.939 51.939 26.9838 52.7163 25.8906C53.5934 24.6571 54.1575 23.1906 55.2855 20.2577L60 8Z" stroke="#92BDFF" stroke-width="2" stroke-linecap="round" stroke-linejoin="round"/>
</svg>
